<?xml version="1.0" encoding="UTF-8" standalone="no"?>
<svg
   xmlns:dc="http://purl.org/dc/elements/1.1/"
   xmlns:cc="http://creativecommons.org/ns#"
   xmlns:rdf="http://www.w3.org/1999/02/22-rdf-syntax-ns#"
   xmlns:svg="http://www.w3.org/2000/svg"
   xmlns="http://www.w3.org/2000/svg"
   xmlns:sodipodi="http://sodipodi.sourceforge.net/DTD/sodipodi-0.dtd"
   xmlns:inkscape="http://www.inkscape.org/namespaces/inkscape"
   id="solid"
   viewBox="0 0 512 512"
   version="1.1"
   sodipodi:docname="icon-graduation-hat.svg"
   inkscape:version="0.92.3 (2405546, 2018-03-11)">
  <metadata
     id="metadata11">
    <rdf:RDF>
      <cc:Work
         rdf:about="">
        <dc:format>image/svg+xml</dc:format>
        <dc:type
           rdf:resource="http://purl.org/dc/dcmitype/StillImage" />
      </cc:Work>
    </rdf:RDF>
  </metadata>
  <defs
     id="defs9" />
  <sodipodi:namedview
     pagecolor="#ffffff"
     bordercolor="#666666"
     borderopacity="1"
     objecttolerance="10"
     gridtolerance="10"
     guidetolerance="10"
     inkscape:pageopacity="0"
     inkscape:pageshadow="2"
     inkscape:window-width="1680"
     inkscape:window-height="987"
     id="namedview7"
     showgrid="false"
     inkscape:zoom="1.84375"
     inkscape:cx="207.70137"
     inkscape:cy="297.58637"
     inkscape:window-x="-8"
     inkscape:window-y="-8"
     inkscape:window-maximized="1"
     inkscape:current-layer="solid" />
  <title
     id="title2" />
  <path
     d="m 407.951,343.116 c 0.0285,0.24336 0.0445,0.48801 0.048,0.733 0.121,13.4 -15.891,29.5 -41.725,41.981 C 345.344,395.944 309.222,408 256,408 202.778,408 166.656,395.944 145.726,385.83 119.892,373.348 103.88,357.246 104,343.849 c 0.004,-0.24499 0.0195,-0.48964 0.048,-0.733 L 115.1,243.624 c 0.52391,-4.71638 5.4896,-7.55573 9.82,-5.615 L 242.911,290.9 c 8.32833,3.72727 17.85067,3.72727 26.179,0 l 117.986,-52.89 c 4.3304,-1.94073 9.29609,0.89862 9.82,5.615 z M 474.988,153.4 269.088,61.1 c -8.32816,-3.728039 -17.85084,-3.728039 -26.179,0 l -205.9,92.3 c -12.079512,5.41528 -12.584345,22.07399 -1.5145,28.42905 0.371913,0.21352 0.756892,0.4154 1.154935,0.60483 0.118694,0.0565 0.238548,0.11187 0.359565,0.16612 l 205.9,92.3 c 8.32833,3.72727 17.85067,3.72727 26.179,0 L 440,198.284 v 59.874 c -4.94898,2.85253 -7.99898,8.12979 -8,13.842 v 104 h 32 V 272 c -0.001,-5.71221 -3.05102,-10.98947 -8,-13.842 v -67.047 l 18.987,-8.511 c 12.60636,-5.65147 12.60636,-23.54853 0,-29.2 z"
     style="fill:#80a1c2;stroke:#80a1c2;stroke-opacity:1;fill-opacity:1"
     id="path4"
     inkscape:connector-curvature="0"
     sodipodi:nodetypes="cccscccsccccccccccsscccccccccccccc" />
  <path
     style="fill:#80a1c2;fill-opacity:1;stroke:#80a1c2;stroke-width:1.53400004;stroke-miterlimit:4;stroke-dasharray:none;stroke-opacity:1"
     d="m 432.02323,323.46636 c 0,-54.44577 0.752,-61.46611 6.83402,-63.80001 2.02784,-0.77815 2.37035,-5.31919 2.37035,-31.4267 0,-16.78441 -0.37072,-30.51711 -0.82384,-30.51711 -0.4531,0 -39.98283,17.54129 -87.84383,38.98064 -47.86102,21.43936 -89.42771,39.4199 -92.37046,39.95678 -3.10294,0.56608 -8.2502,0.0745 -12.2537,-1.17032 -3.79681,-1.18055 -52.80869,-22.68497 -108.91842,-47.78067 -74.192687,-33.1835 -106.549678,-46.69078 -108.391076,-51.01788 -2.546898,-5.98495 -3.31401,-13.59196 1.582002,-19.14935 2.344923,-2.66168 37.42667,-18.06703 109.819404,-50.48405 l 106.55953,-47.716693 9.45392,0.119237 c 8.1478,0.102763 21.77675,6.976596 112.61961,47.776966 56.95206,25.57895 105.09756,47.5042 106.98999,48.72278 1.89244,1.21857 4.21169,4.78862 5.1539,7.93343 2.83973,9.47818 -0.95141,14.64654 -15.63705,21.31755 l -12.13342,5.51165 0.0265,33.79769 0.0265,33.79769 3.80866,3.61266 3.47415,8.04552 0.3345,50.63235 v 55.06523 h -15.34062 -15.34062 z"
     id="path4538"
     inkscape:connector-curvature="0"
     sodipodi:nodetypes="scssscssssscsscsscccccccccs" />
  <path
     style="fill:#80a1c2;fill-opacity:1;stroke:#80a1c2;stroke-width:1.53406215;stroke-opacity:1"
     d="m 229.98965,406.24885 c -54.98349,-4.22953 -106.25641,-25.803 -121.88719,-51.28494 -3.80539,-6.20371 -3.65877,-9.97497 2.53474,-65.19764 2.95307,-26.33019 5.36922,-48.12259 5.36922,-48.42756 0,-0.30497 1.37111,-1.28828 3.0469,-2.18514 0.81605,-0.43673 2.50022,-0.27484 6.12419,0.91969 7.63012,2.51505 23.85929,9.60773 58.68994,25.32886 58.89386,26.58228 62.23109,27.88626 71.73863,28.03101 9.76774,0.14871 11.25024,-0.42482 72.58234,-28.07958 61.20953,-27.59948 62.67227,-28.16586 65.35033,-25.30378 2.24237,2.39643 3.7667,12.34936 8.40155,54.85659 l 5.66216,51.92898 -3.26646,6.7476 c -9.38788,19.39276 -48.13695,40.04354 -90.57344,48.26985 -14.99161,2.90612 -50.34234,6.22165 -61.99164,5.81418 -3.37493,-0.11813 -13.17651,-0.7562 -21.78127,-1.41812 z"
     id="path4540"
     inkscape:connector-curvature="0"
     sodipodi:nodetypes="cssscsssscscsscc" />
</svg>
