<?xml version="1.0" encoding="UTF-8" standalone="no"?>
<svg
   xmlns:dc="http://purl.org/dc/elements/1.1/"
   xmlns:cc="http://creativecommons.org/ns#"
   xmlns:rdf="http://www.w3.org/1999/02/22-rdf-syntax-ns#"
   xmlns:svg="http://www.w3.org/2000/svg"
   xmlns="http://www.w3.org/2000/svg"
   xmlns:sodipodi="http://sodipodi.sourceforge.net/DTD/sodipodi-0.dtd"
   xmlns:inkscape="http://www.inkscape.org/namespaces/inkscape"
   id="Layer_1"
   style="enable-background:new 0 0 50 50;"
   version="1.1"
   viewBox="0 0 50 50"
   xml:space="preserve"
   sodipodi:docname="icon-statistics-visualization.svg"
   inkscape:version="0.92.3 (2405546, 2018-03-11)"><metadata
     id="metadata163"><rdf:RDF><cc:Work
         rdf:about=""><dc:format>image/svg+xml</dc:format><dc:type
           rdf:resource="http://purl.org/dc/dcmitype/StillImage" /></cc:Work></rdf:RDF></metadata><defs
     id="defs161" /><sodipodi:namedview
     pagecolor="#ffffff"
     bordercolor="#666666"
     borderopacity="1"
     objecttolerance="10"
     gridtolerance="10"
     guidetolerance="10"
     inkscape:pageopacity="0"
     inkscape:pageshadow="2"
     inkscape:window-width="1680"
     inkscape:window-height="987"
     id="namedview159"
     showgrid="false"
     inkscape:zoom="9.44"
     inkscape:cx="26.626989"
     inkscape:cy="-1.2260904"
     inkscape:window-x="-8"
     inkscape:window-y="-8"
     inkscape:window-maximized="1"
     inkscape:current-layer="g156" /><style
     type="text/css"
     id="style2">
	.st0{fill:#B7C5FD;}
	.st1{fill:#9AADFD;}
	.st2{fill:#FFFFFF;}
	.st3{fill:#3955D1;}
	.st4{fill:#4466FB;}
	.st5{fill:#AABAFD;}
	.st6{fill:#798FFE;}
	.st7{fill:#6BB5FB;}
	.st8{enable-background:new    ;}
	.st9{fill:#1B2A4F;}
	.st10{fill:url(#);}
	.st11{fill:#384E85;}
	.st12{fill:#2E4277;}
	.st13{fill:#D9DDF6;}
	.st14{fill:#535D88;}
	.st15{fill:#2B3C67;}
	.st16{fill:#8FCCFF;}
	.st17{fill:#8CA1FD;}
	.st18{opacity:0.3;}
	.st19{opacity:0.3;fill:#4466FB;}
	.st20{opacity:0.2;}
</style><g
     id="g156"><g
       id="g30"><path
         class="st0"
         d="M 40.92025,1.0683 C 40.73643,0.96146 40.48195,0.97639 40.20132,1.13841 L 8.41569,19.48986 C 7.85576,19.81314 7.40428,20.59512 7.40611,21.23591 L 7.46036,47.5146 c 8.9e-4,0.31801 0.11328,0.54198 0.29469,0.64742 l 1.32443,0.76966 C 8.89805,48.82626 8.78569,48.60229 8.78477,48.28426 L 8.73051,22.00557 C 8.7287,21.36478 9.18019,20.5828 9.74012,20.25952 L 41.52575,1.90807 c 0.28063,-0.16202 0.53511,-0.17692 0.71893,-0.07011 z"
         id="path4"
         inkscape:connector-curvature="0"
         style="fill:#9ab4ce;fill-opacity:1" /><g
         id="g8"><path
           class="st1"
           d="m 41.52575,1.90808 c 0.55766,-0.32196 1.01209,-0.063 1.0139,0.57779 l 0.05424,26.27869 c 0.0018,0.6408 -0.44967,1.42278 -1.00732,1.74475 L 9.80094,48.86075 C 9.24101,49.18403 8.78658,48.92507 8.78476,48.28427 L 8.73052,22.00558 C 8.7287,21.36478 9.18018,20.5828 9.74011,20.25952 Z"
           id="path6"
           inkscape:connector-curvature="0"
           style="fill:#80a1c2;fill-opacity:1" /></g><g
         id="g14"><g
           id="g12"><polygon
             class="st2"
             points="41.28501,5.69294 41.32981,29.2036 10.04949,47.2633 10.00468,23.75265 "
             id="polygon10"
             style="fill:#ffffff" /></g></g><g
         id="g28"><g
           id="g18"><path
             class="st2"
             d="M 37.43862,5.67588 C 37.72502,5.51053 37.9582,5.64341 37.95914,5.97251 37.96007,6.3016 37.7284,6.70114 37.442,6.8665 37.1571,7.03099 36.92392,6.89983 36.92299,6.57073 36.92205,6.24163 37.15372,5.84037 37.43862,5.67588 Z"
             id="path16"
             inkscape:connector-curvature="0"
             style="fill:#ffffff" /></g><g
           id="g22"><path
             class="st2"
             d="m 40.76449,3.75607 c 0.2864,-0.16535 0.51958,-0.03247 0.52051,0.29663 9.3e-4,0.3291 -0.23074,0.72864 -0.51714,0.89399 -0.2849,0.16449 -0.51808,0.03333 -0.51901,-0.29577 -9.3e-4,-0.3291 0.23074,-0.73036 0.51564,-0.89485 z"
             id="path20"
             inkscape:connector-curvature="0"
             style="fill:#ffffff" /></g><g
           id="g26"><path
             class="st2"
             d="m 39.10155,4.71578 c 0.2864,-0.16535 0.51958,-0.03247 0.52052,0.29663 9.3e-4,0.3291 -0.23074,0.72864 -0.51714,0.89399 -0.2864,0.16536 -0.51808,0.03333 -0.51901,-0.29577 -9.3e-4,-0.32909 0.22923,-0.72949 0.51563,-0.89485 z"
             id="path24"
             inkscape:connector-curvature="0"
             style="fill:#ffffff" /></g></g></g><g
       id="g94"><g
         id="g92"><g
           id="g34"><path
             class="st3"
             d="m 16.17335,26.35378 3.16917,-0.45514 c -0.47799,1.74807 -1.70967,3.50637 -3.15815,4.34265 z"
             id="path32"
             inkscape:connector-curvature="0"
             style="fill:#d16f39;fill-opacity:1" /></g><g
           id="g38"><path
             class="st4"
             d="m 18.83965,22.43209 c 0.44771,0.39862 0.71431,1.07131 0.71686,1.96842 0.0014,0.48449 -0.07598,0.99122 -0.21398,1.49813 l -3.16917,0.45514 z"
             id="path36"
             inkscape:connector-curvature="0"
             style="fill:#fb8544;fill-opacity:1" /></g><g
           id="g42"><path
             class="st5"
             d="m 13.00417,26.80893 3.16918,-0.45515 0.01102,3.88751 c -1.86811,1.07856 -3.3881,0.21235 -3.39419,-1.93424 -0.0014,-0.48217 0.07398,-0.99006 0.21399,-1.49812 z"
             id="path40"
             inkscape:connector-curvature="0"
             style="fill:#fdc7aa;fill-opacity:1" /></g><g
           id="g46"><path
             class="st6"
             d="m 16.16233,22.46627 0.01102,3.88751 -3.16918,0.45515 c 0.47799,-1.74808 1.70966,-3.50637 3.15816,-4.34266 z"
             id="path44"
             inkscape:connector-curvature="0"
             style="fill:#fea879;fill-opacity:1" /></g><g
           id="g50"><path
             class="st7"
             d="m 16.16233,22.46627 c 1.08738,-0.6278 2.05739,-0.59574 2.67732,-0.03418 l -2.6663,3.92168 z"
             id="path48"
             inkscape:connector-curvature="0"
             style="fill:#fb9e6b;fill-opacity:1" /></g><g
           id="g54"><path
             class="st6"
             d="m 25.25067,17.21911 0.0044,1.53692 c -0.87555,0.5055 -1.62019,1.56931 -1.91019,2.62604 l -1.25231,0.17969 c 0.47798,-1.74807 1.71167,-3.50753 3.15814,-4.34265 z"
             id="path52"
             inkscape:connector-curvature="0"
             style="fill:#fea879;fill-opacity:1" /></g><g
           id="g58"><path
             class="st7"
             d="m 25.25067,17.21911 c 1.08939,-0.62896 2.0574,-0.59575 2.67934,-0.03534 l -1.05445,1.54917 c -0.37681,-0.33739 -0.96286,-0.35661 -1.62053,0.0231 z"
             id="path56"
             inkscape:connector-curvature="0"
             style="fill:#fb9e6b;fill-opacity:1" /></g><g
           id="g62"><path
             class="st3"
             d="m 27.17855,20.83117 1.25231,-0.17969 c -0.47799,1.74807 -1.70967,3.50637 -3.15815,4.34265 l -0.0044,-1.53692 c 0.87555,-0.50549 1.6202,-1.5693 1.9102,-2.62604 z"
             id="path60"
             inkscape:connector-curvature="0"
             style="fill:#d16f39;fill-opacity:1" /></g><g
           id="g66"><path
             class="st4"
             d="m 27.93001,17.18377 c 0.44568,0.39979 0.7123,1.07247 0.71485,1.96958 0.0014,0.48449 -0.07399,0.99007 -0.214,1.49813 l -1.25231,0.17969 c 0.084,-0.30623 0.1296,-0.61351 0.12877,-0.9056 -0.0015,-0.54244 -0.16232,-0.94883 -0.43176,-1.19264 z"
             id="path64"
             inkscape:connector-curvature="0"
             style="fill:#fb8544;fill-opacity:1" /></g><g
           id="g70"><path
             class="st5"
             d="m 22.09252,21.56176 1.25231,-0.17969 c -0.084,0.30623 -0.1296,0.61351 -0.12877,0.9056 0.0037,1.29816 0.92256,1.8218 2.05229,1.16955 l 0.0044,1.53692 c -1.8681,1.07855 -3.3881,0.21235 -3.39419,-1.93424 -0.0014,-0.48218 0.076,-0.99123 0.214,-1.49814 z"
             id="path68"
             inkscape:connector-curvature="0"
             style="fill:#fdc7aa;fill-opacity:1" /></g><g
           id="g74"><path
             class="st7"
             d="m 34.46854,12.04577 c 0.91601,-0.48706 1.77681,-0.49876 2.37019,-0.03099 l -0.85522,1.25767 c -0.3888,-0.28867 -0.92426,-0.28137 -1.51143,0.02048 z"
             id="path72"
             inkscape:connector-curvature="0"
             style="fill:#fb9e6b;fill-opacity:1" /></g><g
           id="g78"><path
             class="st4"
             d="m 36.99472,12.15691 c 0.39923,0.40571 0.61118,1.03565 0.6134,1.8215 0.0011,0.40336 -0.05422,0.83469 -0.16409,1.28124 l -1.016,0.14543 c 0.06388,-0.27836 0.09747,-0.54852 0.09675,-0.8012 -0.0014,-0.50767 -0.13396,-0.91877 -0.38528,-1.18929 z"
             id="path76"
             inkscape:connector-curvature="0"
             style="fill:#fb8544;fill-opacity:1" /></g><g
           id="g82"><path
             class="st6"
             d="m 34.21435,12.19253 0.0035,1.24716 c -0.80479,0.51805 -1.5274,1.51109 -1.85384,2.54706 l -1.01599,0.14773 c 0.48846,-1.61944 1.60559,-3.15603 2.86629,-3.94195 z"
             id="path80"
             inkscape:connector-curvature="0"
             style="fill:#fea879;fill-opacity:1" /></g><g
           id="g86"><path
             class="st5"
             d="m 31.25805,16.46044 1.01598,-0.14773 c -0.06387,0.27835 -0.09745,0.54852 -0.09674,0.80119 0.0038,1.32829 0.90459,1.89719 2.05472,1.30978 l 0.0035,1.24716 c -1.72912,0.92168 -3.13392,0.06095 -3.13957,-1.93265 -0.0011,-0.40335 0.0522,-0.83352 0.16207,-1.27775 z"
             id="path84"
             inkscape:connector-curvature="0"
             style="fill:#fdc7aa;fill-opacity:1" /></g><g
           id="g90"><path
             class="st3"
             d="m 36.33802,15.7287 1.01802,-0.14658 c -0.48845,1.61944 -1.6076,3.1572 -2.8663,3.94196 l -0.0035,-1.24716 c 0.80479,-0.52037 1.52539,-1.51224 1.85182,-2.54822 z"
             id="path88"
             inkscape:connector-curvature="0"
             style="fill:#d16f39;fill-opacity:1" /></g></g></g><g
       id="g136"><g
         class="st8"
         id="g104"
         style="enable-background:new"><g
           id="g98"><polygon
             class="st7"
             points="15.63945,38.35503 16.68677,37.75036 16.69865,40.78558 15.65133,41.39025 "
             id="polygon96"
             style="fill:#fb9e6b;fill-opacity:1" /></g><g
           id="g102"><polygon
             class="st4"
             points="16.69865,40.78558 16.6798,35.98584 17.72712,35.38117 17.74597,40.18091 "
             id="polygon100"
             style="fill:#fb8544;fill-opacity:1" /></g></g><g
         id="g108"><polygon
           class="st7"
           points="19.33432,38.31162 20.38162,37.70696 20.39001,38.65437 19.34271,39.25903 "
           id="polygon106"
           style="fill:#fb9e6b;fill-opacity:1" /></g><g
         id="g112"><polygon
           class="st4"
           points="20.39001,38.65437 20.37465,36.63743 21.42197,36.03276 21.43733,38.0497 "
           id="polygon110"
           style="fill:#fb8544;fill-opacity:1" /></g><g
         id="g116"><polygon
           class="st4"
           points="24.0814,36.52315 24.05207,29.58062 25.09939,28.97595 25.12872,35.91848 "
           id="polygon114"
           style="fill:#fb8544;fill-opacity:1" /></g><g
         id="g120"><polygon
           class="st7"
           points="23.03408,37.12782 23.01172,32.6448 24.05904,32.04013 24.0814,36.52315 "
           id="polygon118"
           style="fill:#fb9e6b;fill-opacity:1" /></g><g
         class="st8"
         id="g130"
         style="enable-background:new"><g
           id="g124"><polygon
             class="st7"
             points="26.72544,34.99661 26.71008,33.14276 27.7574,32.53809 27.77276,34.39194 "
             id="polygon122"
             style="fill:#fb9e6b;fill-opacity:1" /></g><g
           id="g128"><polygon
             class="st4"
             points="27.77276,34.39194 27.75041,31.46198 28.79773,30.85731 28.82008,33.78727 "
             id="polygon126"
             style="fill:#fb8544;fill-opacity:1" /></g></g><g
         id="g134"><polygon
           class="st9"
           points="13.90005,42.49486 13.90005,41.9597 13.60813,42.13345 13.60813,42.03614 13.90005,41.86935 13.90005,41.34115 13.60813,41.5149 13.60813,41.41068 13.90005,41.24389 13.90005,40.71569 13.60813,40.88248 13.60813,40.79213 13.90005,40.62534 13.90005,40.09018 13.60813,40.25697 13.60813,40.15971 13.90005,39.98596 13.8931,39.46472 13.60117,39.63847 13.60117,39.5342 13.8931,39.36045 13.8931,38.83921 13.60117,39.01296 13.60117,38.9087 13.8931,38.74191 13.8931,38.21371 13.60117,38.37358 13.60117,38.29019 13.8931,38.11644 13.8931,37.5952 13.60117,37.75503 13.60117,37.65772 13.8931,37.48398 13.8931,36.96273 13.60117,37.12953 13.60117,37.0253 13.8931,36.86543 13.88614,36.33031 13.59426,36.50406 13.59426,36.3998 13.88614,36.23996 13.88614,35.70481 13.59426,35.8716 13.59426,35.78125 13.88614,35.61446 13.88614,35.08626 13.59426,35.25309 13.59426,35.14883 13.88614,34.97508 13.88614,34.45384 13.59426,34.62759 13.59426,34.53028 13.97649,34.30788 13.99732,42.34889 30.16275,33.01521 30.16275,33.10556 "
           id="polygon132"
           style="fill:#1b2a4f" /></g></g><g
       id="g154"><g
         id="g140"><polygon
           class="st1"
           points="32.56538,28.8757 39.28428,24.99655 39.2865,25.78168 32.56761,29.66084 "
           id="polygon138"
           style="fill:#fdbd9a;fill-opacity:1" /></g><g
         id="g144"><polygon
           class="st1"
           points="32.57022,30.58337 35.59944,28.83445 35.60165,29.61305 32.57243,31.36197 "
           id="polygon142"
           style="fill:#fdbd9a;fill-opacity:1" /></g><g
         id="g148"><polygon
           class="st1"
           points="32.56279,27.9597 32.56056,27.17457 37.43463,24.36052 37.43686,25.14566 "
           id="polygon146"
           style="fill:#fdbd9a;fill-opacity:1" /></g><g
         id="g152"><polygon
           class="st1"
           points="32.55796,26.25857 32.55574,25.47343 39.27463,21.59428 39.27686,22.37942 "
           id="polygon150"
           style="fill:#fdbd9a;fill-opacity:1" /></g></g></g></svg>