<svg xmlns="http://www.w3.org/2000/svg" viewBox="0 0 1333.32 1333.32" shape-rendering="geometricPrecision" text-rendering="geometricPrecision" image-rendering="optimizeQuality" fill-rule="evenodd" clip-rule="evenodd"><path d="M666.66 0c368.19 0 666.66 298.47 666.66 666.66 0 368.19-298.47 666.66-666.66 666.66C298.47 1333.32 0 1034.85 0 666.66 0 298.47 298.47 0 666.66 0zM409.32 442.98c-6.43 0-11.83 2.26-14.54 6.66-2.81 4.56-2.38 10.43.61 16.36l72.11 124.82c.12.24.12.39 0 .61L354.19 791.39c-2.96 5.89-2.81 11.8 0 16.36 2.72 4.39 7.52 7.28 13.94 7.28h106.64c15.94 0 23.63-10.76 29.09-20.6 0 0 110.81-195.98 115.13-203.59-.44-.7-73.32-127.85-73.32-127.85-5.31-9.45-13.33-19.99-29.69-19.99H409.34zm448.02-146.03c-15.93 0-22.83 10.04-28.55 20.31 0 0-229.74 407.43-237.31 420.81.39.73 151.53 278 151.53 278 5.29 9.45 13.45 20.31 29.79 20.31h106.52c6.43 0 11.44-2.43 14.15-6.81 2.83-4.56 2.76-10.57-.22-16.48L742.9 738.4a.606.606 0 010-.7l236.12-417.49c2.96-5.89 3.04-11.9.22-16.46-2.72-4.39-7.76-6.81-14.18-6.81H857.33z" fill="#046064"/></svg>