<?xml version="1.0" ?><svg style="enable-background:new 0 0 50 50;" version="1.1" viewBox="0 0 50 50" xml:space="preserve" xmlns="http://www.w3.org/2000/svg" xmlns:xlink="http://www.w3.org/1999/xlink"><g id="Layer_1"><path d="M1,49h48V1H1V49z M3,3h44v44H3V3z"/><path d="M6,12h6V6H6V12z M8,8h2v2H8V8z"/><path d="M6,20h6v-6H6V20z M8,16h2v2H8V16z"/><path d="M6,28h6v-6H6V28z M8,24h2v2H8V24z"/><path d="M6,36h6v-6H6V36z M8,32h2v2H8V32z"/><path d="M6,44h6v-6H6V44z M8,40h2v2H8V40z"/><path d="M38,12h6V6h-6V12z M40,8h2v2h-2V8z"/><path d="M38,20h6v-6h-6V20z M40,16h2v2h-2V16z"/><path d="M38,28h6v-6h-6V28z M40,24h2v2h-2V24z"/><path d="M38,36h6v-6h-6V36z M40,32h2v2h-2V32z"/><path d="M38,44h6v-6h-6V44z M40,40h2v2h-2V40z"/><path d="M19,31.618L32.236,25L19,18.382V31.618z M21,21.618L27.764,25L21,28.382V21.618z"/></g><g/></svg>