<?xml version="1.0" encoding="UTF-8" standalone="no"?>
<svg
   xmlns:dc="http://purl.org/dc/elements/1.1/"
   xmlns:cc="http://creativecommons.org/ns#"
   xmlns:rdf="http://www.w3.org/1999/02/22-rdf-syntax-ns#"
   xmlns:svg="http://www.w3.org/2000/svg"
   xmlns="http://www.w3.org/2000/svg"
   xmlns:sodipodi="http://sodipodi.sourceforge.net/DTD/sodipodi-0.dtd"
   xmlns:inkscape="http://www.inkscape.org/namespaces/inkscape"
   height="512px"
   id="Layer_1"
   style="enable-background:new 0 0 512 512;"
   version="1.1"
   viewBox="0 0 512 512"
   width="512px"
   xml:space="preserve"
   sodipodi:docname="icon-cogwheel-head.svg"
   inkscape:version="0.92.3 (2405546, 2018-03-11)"
   inkscape:label="Test"><metadata
     id="metadata226"><rdf:RDF><cc:Work
         rdf:about=""><dc:format>image/svg+xml</dc:format><dc:type
           rdf:resource="http://purl.org/dc/dcmitype/StillImage" /></cc:Work></rdf:RDF></metadata><defs
     id="defs224" /><sodipodi:namedview
     pagecolor="#ffffff"
     bordercolor="#666666"
     borderopacity="1"
     objecttolerance="10"
     gridtolerance="10"
     guidetolerance="10"
     inkscape:pageopacity="0"
     inkscape:pageshadow="2"
     inkscape:window-width="1680"
     inkscape:window-height="987"
     id="namedview222"
     showgrid="false"
     inkscape:zoom="2.6074563"
     inkscape:cx="389.49996"
     inkscape:cy="261.09793"
     inkscape:window-x="-8"
     inkscape:window-y="-8"
     inkscape:window-maximized="1"
     inkscape:current-layer="Layer_1" /><g
     id="Layer_1_1_"
     style="display:inline"
     inkscape:label="Background"><circle
       cx="257.66199"
       cy="263.32999"
       r="243"
       style="fill:#125e6e"
       id="circle2" /><path
       style="fill:#2e393f;fill-opacity:1;stroke:#2e393f;stroke-width:3.32800007;stroke-miterlimit:4;stroke-dasharray:none;stroke-opacity:1"
       d="m 231.70169,504.22289 c -2.98305,-0.52328 -11.28135,-1.96705 -18.44067,-3.20839 C 152.62425,490.5009 91.898171,450.55742 57.145255,398.32702 -7.6656449,300.92223 4.8978558,173.89322 87.435854,92.060041 129.39397,50.460223 185.24109,25.29463 241.46441,22.652342 l 21.69491,-1.019581 -10.84746,4.055979 c -40.3369,15.08239 -60.45606,36.253786 -82.82701,87.15885 -7.87797,17.92632 -8.08301,19.05771 -7.85737,43.3558 0.15018,16.17144 1.44202,28.76555 3.67184,35.79661 5.85064,18.44819 5.21695,20.30315 -16.06795,47.0344 -10.75529,13.50737 -20.11763,26.68345 -20.80521,29.28022 -2.49558,9.42503 3.58554,16.59153 18.62843,21.95328 7.70744,2.74716 14.74718,6.16752 15.64387,7.60077 0.89669,1.43325 1.06113,7.50473 0.36541,13.49218 -0.87828,7.55868 -0.19701,13.44219 2.22882,19.24799 1.92156,4.59895 3.49375,10.24353 3.49375,12.5435 0,2.29998 1.5217,7.12443 3.38156,10.72099 1.92171,3.71619 3.61152,13.26968 3.91423,22.12956 0.59195,17.32512 6.5138,31.85201 14.94858,36.67032 3.41519,1.95092 15.89853,2.81978 41.70217,2.90252 l 36.8279,0.11802 1.98275,8.55986 c 1.09051,4.70793 6.2121,24.12672 11.38132,43.1529 5.16921,19.02618 8.95171,35.0399 8.40557,35.58604 -1.35383,1.35383 -52.86576,2.41662 -59.62883,1.23026 z"
       id="path1033"
       inkscape:connector-curvature="0" /><path
       style="fill:#2e393f;fill-opacity:1;stroke:#2e393f;stroke-width:3.32800007;stroke-miterlimit:4;stroke-dasharray:none;stroke-opacity:1"
       d="m 435.98852,401.89831 c -6.93031,-18.01189 -11.20208,-37.41962 -11.20208,-50.89385 0,-7.14918 1.78452,-10.25449 12.55003,-21.83884 22.83551,-24.5724 50.03022,-172.40287 56.67797,-125.47291 l 1.77154,12.50625 1.55084,12.41252 c 6.38298,51.08763 -4.3097,109.81732 -27.50098,151.04954 -5.95029,10.57913 -25.54063,39.05084 -26.86946,39.05084 -0.27974,0 -3.41978,-7.5661 -6.97786,-16.81355 z"
       id="path1035"
       inkscape:connector-curvature="0"
       sodipodi:nodetypes="sssscssss" /></g><g
     inkscape:groupmode="layer"
     id="layer1"
     inkscape:label="HeadFront"
     style="display:inline"
     sodipodi:insensitive="true"><path
       d="m 498.675,195.009 c -0.8,5.64 -1.96,11.44 -3.39,17.27 -7.16,29.55 -21.03,60.21 -30.22,78.07 -11,21.39 -31.17,42.17 -39.72,50.11 -1.57,10.44 -4.03,37.84 17.77,79.9 -37.23,43.93 -89.8,74.46 -149.43,83.31 -10.23,-36.48 -23.01,-84.56 -24.19,-90.48 -14.06,1.83 -73.34,7.33 -82.51,-4.89 -9.16,-12.22 -14.05,-29.95 -9.16,-47.67 -7.34,-7.33 -9.78,-15.89 -9.17,-25.67 -4.28,-3.67 -7.95,-18.94 -3.06,-29.95 0,-7.94 -3.88,-10.38 -3.88,-10.38 0,0 -23.01,-7.95 -27.28,-9.78 -4.28,-1.84 -7.34,-15.28 -3.67,-20.78 3.67,-5.5 34.28,-41.89 40.06,-52.12 0,0 -0.95,-10.22 -4.61,-20 -3.67,-9.78 -7.95,-50.11 0,-69.06 7.94,-18.95 26.89,-70.28 69.06,-89.23 10.64,-4.78 22.84,-9.21 35.65,-12.97 37.96,-11.16 93.94472,-12.3371299 118.16472,-3.65713 32.39,11.61 69.25528,30.68713 88.19528,66.74713 18.95,36.05 26.28,77 21.39,111.23 z"
       style="display:inline;fill:#a2cedd;fill-opacity:1"
       id="path6"
       inkscape:connector-curvature="0"
       inkscape:label="Head"
       sodipodi:nodetypes="cccccccccccccscccccccc" /></g><g
     inkscape:groupmode="layer"
     id="layer4"
     inkscape:label="TopWheel"
     sodipodi:insensitive="true"><g
       style="display:inline"
       id="g12"><path
         d="m 304.251,111.338 c -0.055,3.18 0.41,6.251 1.32,9.124 l -57.222,-0.988 c -1.957,-0.034 -3.512,-1.754 -3.476,-3.834 l 0.184,-10.651 c 0.036,-2.081 1.65,-3.746 3.606,-3.712 l 57.222,0.988 c -1.009,2.84 -1.579,5.893 -1.634,9.073 z"
         style="fill:#3f82c6;fill-opacity:1"
         id="path8"
         inkscape:connector-curvature="0" /><path
         d="m 304.251,111.338 c -0.055,3.18 0.41,6.251 1.32,9.124 l -57.222,-0.988 c -1.957,-0.034 -3.512,-1.754 -3.476,-3.834 l 0.184,-10.651 c 0.036,-2.081 1.65,-3.746 3.606,-3.712 l 57.222,0.988 c -1.009,2.84 -1.579,5.893 -1.634,9.073 z"
         style="opacity:0.1;fill:#3f82c6;fill-opacity:1;enable-background:new"
         id="path10"
         inkscape:connector-curvature="0" /></g><g
       style="display:inline"
       id="g18"><path
         d="m 420.867,108.024 -0.184,10.651 c -0.036,2.081 -1.65,3.746 -3.606,3.712 l -57.216,-0.988 c 1.009,-2.84 1.579,-5.893 1.634,-9.073 0.009,-0.496 0.006,-0.986 -0.012,-1.478 -0.089,-2.654 -0.541,-5.223 -1.308,-7.647 l 57.216,0.988 c 1.956,0.034 3.512,1.754 3.476,3.835 z"
         style="fill:#3f82c6;fill-opacity:1"
         id="path14"
         inkscape:connector-curvature="0" /><path
         d="m 420.867,108.024 -0.184,10.651 c -0.036,2.081 -1.65,3.746 -3.606,3.712 l -57.216,-0.988 c 1.009,-2.84 1.579,-5.893 1.634,-9.073 0.009,-0.496 0.006,-0.986 -0.012,-1.478 -0.089,-2.654 -0.541,-5.223 -1.308,-7.647 l 57.216,0.988 c 1.956,0.034 3.512,1.754 3.476,3.835 z"
         style="opacity:0.1;fill:#3f82c6;fill-opacity:1;enable-background:new"
         id="path16"
         inkscape:connector-curvature="0" /></g><g
       style="display:inline"
       id="g24"><path
         d="m 341.497,139.134 -0.988,57.216 c -0.034,1.957 -1.748,3.512 -3.834,3.476 l -10.646,-0.184 c -2.086,-0.036 -3.746,-1.65 -3.712,-3.606 l 0.988,-57.216 c 2.84,1.009 5.893,1.579 9.073,1.634 3.181,0.055 6.246,-0.41 9.119,-1.32 z"
         style="fill:#3f82c6;fill-opacity:1"
         id="path20"
         inkscape:connector-curvature="0" /><path
         d="m 341.497,139.134 -0.988,57.216 c -0.034,1.957 -1.748,3.512 -3.834,3.476 l -10.646,-0.184 c -2.086,-0.036 -3.746,-1.65 -3.712,-3.606 l 0.988,-57.216 c 2.84,1.009 5.893,1.579 9.073,1.634 3.181,0.055 6.246,-0.41 9.119,-1.32 z"
         style="opacity:0.1;fill:#3f82c6;fill-opacity:1;enable-background:new"
         id="path22"
         inkscape:connector-curvature="0" /></g><g
       style="display:inline"
       id="g30"><path
         d="m 343.422,27.628 -0.988,57.216 c -2.84,-1.009 -5.887,-1.579 -9.068,-1.634 -3.18,-0.055 -6.251,0.41 -9.124,1.32 l 0.988,-57.216 c 0.034,-1.957 1.748,-3.512 3.834,-3.476 l 10.645,0.184 c 2.087,0.036 3.747,1.65 3.713,3.606 z"
         style="fill:#3f82c6;fill-opacity:1"
         id="path26"
         inkscape:connector-curvature="0" /><path
         d="m 343.422,27.628 -0.988,57.216 c -2.84,-1.009 -5.887,-1.579 -9.068,-1.634 -3.18,-0.055 -6.251,0.41 -9.124,1.32 l 0.988,-57.216 c 0.034,-1.957 1.748,-3.512 3.834,-3.476 l 10.645,0.184 c 2.087,0.036 3.747,1.65 3.713,3.606 z"
         style="opacity:0.1;fill:#3f82c6;fill-opacity:1;enable-background:new"
         id="path28"
         inkscape:connector-curvature="0" /></g><g
       style="display:inline"
       id="g36"><path
         d="m 320.551,85.987 c -1.533,0.734 -2.993,1.598 -4.364,2.594 -0.005,0 -0.005,0.005 -0.011,0.005 -3.63,2.601 -6.628,6.043 -8.709,10.045 L 267.702,57.469 c -1.361,-1.404 -1.246,-3.72 0.251,-5.166 l 7.66,-7.4 c 1.502,-1.451 3.816,-1.481 5.177,-0.072 z"
         style="fill:#3f82c6;fill-opacity:1"
         id="path32"
         inkscape:connector-curvature="0" /><path
         d="m 320.551,85.987 c -1.533,0.734 -2.993,1.598 -4.364,2.594 -0.005,0 -0.005,0.005 -0.011,0.005 -3.63,2.601 -6.628,6.043 -8.709,10.045 L 267.702,57.469 c -1.361,-1.404 -1.246,-3.72 0.251,-5.166 l 7.66,-7.4 c 1.502,-1.451 3.816,-1.481 5.177,-0.072 z"
         style="opacity:0.1;fill:#3f82c6;fill-opacity:1;enable-background:new"
         id="path34"
         inkscape:connector-curvature="0" /></g><g
       style="display:inline"
       id="g42"><path
         d="m 397.786,171.361 -7.66,7.4 c -1.502,1.451 -3.816,1.482 -5.177,0.072 l -39.76,-41.157 c 5.605,-2.675 10.216,-7.124 13.088,-12.639 l 39.76,41.157 c 1.361,1.405 1.246,3.721 -0.251,5.167 z"
         style="fill:#3f82c6;fill-opacity:1"
         id="path38"
         inkscape:connector-curvature="0" /><path
         d="m 397.786,171.361 -7.66,7.4 c -1.502,1.451 -3.816,1.482 -5.177,0.072 l -39.76,-41.157 c 5.605,-2.675 10.216,-7.124 13.088,-12.639 l 39.76,41.157 c 1.361,1.405 1.246,3.721 -0.251,5.167 z"
         style="opacity:0.1;fill:#3f82c6;fill-opacity:1;enable-background:new"
         id="path40"
         inkscape:connector-curvature="0" /></g><g
       style="display:inline"
       id="g48"><path
         d="m 319.667,137.236 -3.268,3.157 -29.434,28.435 -8.455,8.168 c -1.409,1.361 -3.72,1.251 -5.172,-0.251 l -7.4,-7.66 c -1.446,-1.497 -1.482,-3.816 -0.072,-5.172 l 8.378,-8.094 4.617,-4.46 25.042,-24.192 3.125,-3.019 c 2.674,5.611 7.129,10.222 12.639,13.088 z"
         style="fill:#3f82c6;fill-opacity:1"
         id="path44"
         inkscape:connector-curvature="0" /><path
         d="m 319.667,137.236 -3.268,3.157 -29.434,28.435 -8.455,8.168 c -1.409,1.361 -3.72,1.251 -5.172,-0.251 l -7.4,-7.66 c -1.446,-1.497 -1.482,-3.816 -0.072,-5.172 l 8.378,-8.094 4.617,-4.46 25.042,-24.192 3.125,-3.019 c 2.674,5.611 7.129,10.222 12.639,13.088 z"
         style="opacity:0.1;fill:#3f82c6;fill-opacity:1;enable-background:new"
         id="path46"
         inkscape:connector-curvature="0" /></g><g
       style="display:inline"
       id="g54"><path
         d="M 399.874,59.751 387.455,71.749 358.718,99.511 C 356.038,93.9 351.583,89.295 346.074,86.428 l 41.157,-39.76 c 1.409,-1.361 3.72,-1.251 5.172,0.251 l 7.4,7.66 c 1.445,1.497 1.48,3.816 0.071,5.172 z"
         style="fill:#3f82c6;fill-opacity:1"
         id="path50"
         inkscape:connector-curvature="0" /><path
         d="M 399.874,59.751 387.455,71.749 358.718,99.511 C 356.038,93.9 351.583,89.295 346.074,86.428 l 41.157,-39.76 c 1.409,-1.361 3.72,-1.251 5.172,0.251 l 7.4,7.66 c 1.445,1.497 1.48,3.816 0.071,5.172 z"
         style="opacity:0.1;fill:#3f82c6;fill-opacity:1;enable-background:new"
         id="path52"
         inkscape:connector-curvature="0" /></g><path
       d="m 291.963,56.394 c -0.867,0.567 -1.718,1.151 -2.559,1.757 -4.116,2.959 -7.901,6.35 -11.276,10.109 l 28.234,29.225 c 2.554,-3.639 5.911,-6.686 9.816,-8.899 0.005,0 0.005,-0.005 0.011,-0.005 1.37,-0.995 2.83,-1.86 4.364,-2.594 z M 342.18,45.518 c -3.146,-0.48 -6.36,-0.751 -9.632,-0.808 -2.571,-0.044 -5.112,0.047 -7.623,0.267 l -0.683,39.553 c 2.873,-0.91 5.944,-1.375 9.124,-1.32 3.18,0.055 6.227,0.625 9.068,1.634 l 0.676,-39.181 c -0.311,-0.048 -0.618,-0.096 -0.93,-0.145 z m 33.024,14.109 c -0.255,-0.199 -0.516,-0.397 -0.777,-0.59 l -28.354,27.391 c 5.509,2.867 9.964,7.472 12.644,13.083 l 28.737,-27.762 c -3.56,-4.515 -7.68,-8.587 -12.25,-12.122 z m 26.63,46.542 c -0.089,-0.756 -0.195,-1.508 -0.311,-2.254 l -41.348,-0.714 c 0.767,2.423 1.219,4.992 1.308,7.647 0.171,1.345 0.244,2.716 0.22,4.112 -0.038,2.221 -0.324,4.383 -0.829,6.456 l 41.03,0.708 c 0.242,-2.126 0.381,-4.28 0.419,-6.463 0.055,-3.217 -0.117,-6.385 -0.489,-9.492 z M 340.5,142.885 c -3.047,0.945 -6.295,1.428 -9.67,1.37 -2.625,-0.045 -5.174,-0.418 -7.6,-1.075 l -0.698,40.453 c 2.502,0.307 5.038,0.486 7.609,0.53 3.272,0.056 6.493,-0.104 9.654,-0.475 0.313,-0.038 0.621,-0.076 0.935,-0.113 l 0.708,-40.997 c -0.309,0.108 -0.624,0.21 -0.938,0.307 z M 303.944,127.26 c -0.016,-0.033 -0.031,-0.06 -0.042,-0.092 l -25.042,24.192 -4.617,4.46 c 3.647,4.867 7.928,9.244 12.721,13.009 l 29.434,-28.435 c -5.404,-3.011 -9.773,-7.61 -12.454,-13.134 z m 55.355,-1.164 c -0.303,0.717 -0.639,1.423 -1.007,2.107 -2.541,4.793 -6.363,8.819 -11.017,11.634 l 28.234,29.225 c 4.323,-3.376 8.239,-7.239 11.651,-11.504 0.386,-0.479 0.761,-0.963 1.13,-1.452 z m -55.662,-23.87 -42.064,-0.726 c -0.137,0.742 -0.268,1.489 -0.384,2.242 -0.479,3.092 -0.76,6.252 -0.816,9.47 -0.038,2.183 0.027,4.341 0.196,6.473 l 41.03,0.708 c -0.433,-2.089 -0.644,-4.26 -0.605,-6.481 0.057,-3.315 0.662,-6.496 1.732,-9.454 0.271,-0.76 0.575,-1.504 0.911,-2.232 z"
       style="display:inline;opacity:0.05;fill:#1f2123;fill-opacity:1;enable-background:new"
       id="path56"
       inkscape:connector-curvature="0" /><path
       d="M 396.075,89.775 C 392.202,78.639 385.571,69.04 377.124,61.612 c -4.57,-4.026 -9.676,-7.411 -15.157,-10.065 -10.13,-4.894 -21.552,-7.283 -33.316,-6.522 -2.997,0.193 -6.014,0.588 -9.036,1.199 -3.022,0.611 -5.961,1.419 -8.798,2.405 -11.137,3.868 -20.735,10.504 -28.163,18.952 -4.026,4.57 -7.412,9.671 -10.059,15.161 -4.9,10.126 -7.289,21.548 -6.53,33.307 0.193,2.997 0.588,6.014 1.2,9.041 0.612,3.028 1.419,5.961 2.405,8.798 3.866,11.131 10.503,20.73 18.951,28.158 4.571,4.032 9.672,7.417 15.157,10.065 10.126,4.9 21.548,7.289 33.312,6.529 2.997,-0.193 6.019,-0.589 9.041,-1.2 3.022,-0.611 5.956,-1.418 8.793,-2.404 11.137,-3.867 20.735,-10.504 28.17,-18.947 4.02,-4.574 7.411,-9.676 10.059,-15.161 4.9,-10.126 7.284,-21.547 6.528,-33.312 -0.193,-2.997 -0.588,-6.014 -1.2,-9.041 -0.613,-3.029 -1.42,-5.963 -2.406,-8.8 z m -35.553,29.493 c -1.619,6.003 -5.166,11.34 -10.065,15.157 -1.04,0.815 -2.139,1.554 -3.292,2.216 -2.611,1.506 -5.504,2.619 -8.622,3.249 -3.118,0.63 -6.222,0.729 -9.212,0.355 -1.32,-0.162 -2.626,-0.421 -3.894,-0.764 -5.997,-1.615 -11.339,-5.161 -15.157,-10.065 -0.809,-1.036 -1.553,-2.134 -2.215,-3.287 -1.507,-2.611 -2.62,-5.509 -3.25,-8.627 -0.63,-3.118 -0.729,-6.221 -0.355,-9.212 0.162,-1.32 0.422,-2.621 0.765,-3.889 1.614,-6.002 5.16,-11.344 10.059,-15.161 1.035,-0.809 2.139,-1.554 3.292,-2.216 2.61,-1.506 5.509,-2.62 8.627,-3.25 3.118,-0.63 6.216,-0.728 9.207,-0.354 1.32,0.162 2.62,0.417 3.894,0.764 5.997,1.615 11.338,5.156 15.161,10.059 0.809,1.035 1.548,2.135 2.216,3.292 1.507,2.611 2.62,5.509 3.25,8.627 0.63,3.118 0.729,6.222 0.355,9.212 -0.167,1.326 -0.421,2.625 -0.764,3.894 z"
       style="display:inline;fill:#3f82c6;fill-opacity:1"
       id="path58"
       inkscape:connector-curvature="0" /><g
       style="display:inline"
       id="g66"><path
         d="m 323.419,65.051 c -25.839,5.222 -42.554,30.396 -37.332,56.235 5.221,25.834 30.4,42.547 56.239,37.326 25.834,-5.221 42.547,-30.4 37.327,-56.234 -5.222,-25.839 -30.4,-42.547 -56.234,-37.327 z m 15.124,74.839 c -15.498,3.132 -30.597,-6.89 -33.729,-22.389 -3.132,-15.498 6.89,-30.597 22.388,-33.729 15.493,-3.131 30.597,6.89 33.729,22.388 3.132,15.5 -6.895,30.599 -22.388,33.73 z"
         style="fill:#3f82c6;fill-opacity:1"
         id="path60"
         inkscape:connector-curvature="0" /></g><g
       style="display:inline;opacity:0.05"
       id="g74"><path
         d="m 304.814,117.502 c -2.979,-14.743 5.941,-29.118 20.156,-33.184 -0.751,0.091 -1.508,0.211 -2.264,0.364 -15.498,3.132 -25.515,18.229 -22.383,33.728 3.132,15.498 18.225,25.522 33.723,22.39 0.756,-0.153 1.5,-0.336 2.228,-0.544 -14.679,1.772 -28.481,-8.012 -31.46,-22.754 z"
         style="fill:#3f82c6;fill-opacity:1"
         id="path68"
         inkscape:connector-curvature="0" /><g
         id="g72"><path
           d="m 304.814,117.502 c -2.979,-14.743 5.941,-29.118 20.156,-33.184 -0.751,0.091 -1.508,0.211 -2.264,0.364 -15.498,3.132 -25.515,18.229 -22.383,33.728 3.132,15.498 18.225,25.522 33.723,22.39 0.756,-0.153 1.5,-0.336 2.228,-0.544 -14.679,1.772 -28.481,-8.012 -31.46,-22.754 z"
           style="fill:#231f20"
           id="path70"
           inkscape:connector-curvature="0" /></g></g><path
       d="m 323.419,65.051 c -1.009,0.204 -2.001,0.437 -2.976,0.706 24.75,-3.401 48.2,13.002 53.217,37.832 5.017,24.83 -10.223,49.051 -34.351,55.528 1.002,-0.131 2.007,-0.301 3.016,-0.505 25.834,-5.221 42.547,-30.4 37.327,-56.234 -5.221,-25.839 -30.399,-42.547 -56.233,-37.327 z"
       style="display:inline;opacity:0.05;fill:#1f2123;fill-opacity:1;enable-background:new"
       id="path76"
       inkscape:connector-curvature="0" /></g><g
     inkscape:groupmode="layer"
     id="layer5"
     inkscape:label="RightWheel"
     sodipodi:insensitive="true"><g
       style="display:inline"
       id="g152"><path
         d="m 393.519,253.626 c 0.966,1.926 2.209,3.624 3.658,5.063 l -34.662,17.377 c -1.185,0.594 -2.659,0.05 -3.291,-1.21 l -3.234,-6.452 c -0.632,-1.26 -0.186,-2.767 0.999,-3.361 l 34.662,-17.377 c 0.286,2.022 0.903,4.033 1.868,5.96 z"
         style="fill:#f5a53d;fill-opacity:1"
         id="path148"
         inkscape:connector-curvature="0" /><path
         d="m 393.519,253.626 c 0.966,1.926 2.209,3.624 3.658,5.063 l -34.662,17.377 c -1.185,0.594 -2.659,0.05 -3.291,-1.21 l -3.234,-6.452 c -0.632,-1.26 -0.186,-2.767 0.999,-3.361 l 34.662,-17.377 c 0.286,2.022 0.903,4.033 1.868,5.96 z"
         style="opacity:0.1;fill:#f5a53d;fill-opacity:1;enable-background:new"
         id="path150"
         inkscape:connector-curvature="0" /></g><g
       style="display:inline"
       id="g158"><path
         d="m 462.486,215.015 3.234,6.452 c 0.632,1.26 0.186,2.767 -0.999,3.361 l -34.658,17.375 c -0.286,-2.022 -0.903,-4.034 -1.868,-5.96 -0.151,-0.3 -0.306,-0.594 -0.471,-0.883 -0.887,-1.565 -1.965,-2.966 -3.186,-4.18 l 34.658,-17.375 c 1.184,-0.595 2.658,-0.051 3.29,1.21 z"
         style="fill:#f5a53d;fill-opacity:1"
         id="path154"
         inkscape:connector-curvature="0" /><path
         d="m 462.486,215.015 3.234,6.452 c 0.632,1.26 0.186,2.767 -0.999,3.361 l -34.658,17.375 c -0.286,-2.022 -0.903,-4.034 -1.868,-5.96 -0.151,-0.3 -0.306,-0.594 -0.471,-0.883 -0.887,-1.565 -1.965,-2.966 -3.186,-4.18 l 34.658,-17.375 c 1.184,-0.595 2.658,-0.051 3.29,1.21 z"
         style="opacity:0.1;fill:#f5a53d;fill-opacity:1;enable-background:new"
         id="path156"
         inkscape:connector-curvature="0" /></g><g
       style="display:inline"
       id="g164"><path
         d="m 424.608,258.616 17.375,34.658 c 0.594,1.185 0.053,2.658 -1.21,3.291 l -6.448,3.233 c -1.264,0.633 -2.767,0.186 -3.361,-0.999 l -17.375,-34.658 c 2.022,-0.286 4.034,-0.903 5.96,-1.868 1.926,-0.967 3.62,-2.209 5.059,-3.657 z"
         style="fill:#f5a53d;fill-opacity:1"
         id="path160"
         inkscape:connector-curvature="0" /><path
         d="m 424.608,258.616 17.375,34.658 c 0.594,1.185 0.053,2.658 -1.21,3.291 l -6.448,3.233 c -1.264,0.633 -2.767,0.186 -3.361,-0.999 l -17.375,-34.658 c 2.022,-0.286 4.034,-0.903 5.96,-1.868 1.926,-0.967 3.62,-2.209 5.059,-3.657 z"
         style="opacity:0.1;fill:#f5a53d;fill-opacity:1;enable-background:new"
         id="path162"
         inkscape:connector-curvature="0" /></g><g
       style="display:inline"
       id="g170"><path
         d="m 390.747,191.071 17.375,34.658 c -2.022,0.286 -4.03,0.901 -5.957,1.867 -1.926,0.966 -3.624,2.209 -5.063,3.658 l -17.375,-34.658 c -0.594,-1.185 -0.053,-2.657 1.21,-3.291 l 6.448,-3.233 c 1.264,-0.633 2.767,-0.186 3.362,0.999 z"
         style="fill:#f5a53d;fill-opacity:1"
         id="path166"
         inkscape:connector-curvature="0" /><path
         d="m 390.747,191.071 17.375,34.658 c -2.022,0.286 -4.03,0.901 -5.957,1.867 -1.926,0.966 -3.624,2.209 -5.063,3.658 l -17.375,-34.658 c -0.594,-1.185 -0.053,-2.657 1.21,-3.291 l 6.448,-3.233 c 1.264,-0.633 2.767,-0.186 3.362,0.999 z"
         style="opacity:0.1;fill:#f5a53d;fill-opacity:1;enable-background:new"
         id="path168"
         inkscape:connector-curvature="0" /></g><g
       style="display:inline"
       id="g176"><path
         d="m 395.344,233.288 c -0.69,0.922 -1.295,1.899 -1.805,2.927 -0.003,0.002 -0.002,0.005 -0.005,0.007 -1.363,2.701 -2.081,5.709 -2.073,8.765 l -36.798,-12.223 c -1.258,-0.415 -1.916,-1.842 -1.472,-3.18 l 2.275,-6.848 c 0.446,-1.343 1.826,-2.088 3.085,-1.669 z"
         style="fill:#f5a53d;fill-opacity:1"
         id="path172"
         inkscape:connector-curvature="0" /><path
         d="m 395.344,233.288 c -0.69,0.922 -1.295,1.899 -1.805,2.927 -0.003,0.002 -0.002,0.005 -0.005,0.007 -1.363,2.701 -2.081,5.709 -2.073,8.765 l -36.798,-12.223 c -1.258,-0.415 -1.916,-1.842 -1.472,-3.18 l 2.275,-6.848 c 0.446,-1.343 1.826,-2.088 3.085,-1.669 z"
         style="opacity:0.1;fill:#f5a53d;fill-opacity:1;enable-background:new"
         id="path174"
         inkscape:connector-curvature="0" /></g><g
       style="display:inline"
       id="g182"><path
         d="m 468.52,260.286 -2.275,6.848 c -0.446,1.343 -1.826,2.088 -3.085,1.669 l -36.794,-12.221 c 2.525,-3.366 3.896,-7.485 3.888,-11.698 l 36.794,12.221 c 1.259,0.416 1.917,1.843 1.472,3.181 z"
         style="fill:#f5a53d;fill-opacity:1"
         id="path178"
         inkscape:connector-curvature="0" /><path
         d="m 468.52,260.286 -2.275,6.848 c -0.446,1.343 -1.826,2.088 -3.085,1.669 l -36.794,-12.221 c 2.525,-3.366 3.896,-7.485 3.888,-11.698 l 36.794,12.221 c 1.259,0.416 1.917,1.843 1.472,3.181 z"
         style="opacity:0.1;fill:#f5a53d;fill-opacity:1;enable-background:new"
         id="path180"
         inkscape:connector-curvature="0" /></g><g
       style="display:inline"
       id="g188"><path
         d="m 410.907,264.332 -0.97,2.922 -8.74,26.313 -2.511,7.559 c -0.418,1.26 -1.84,1.919 -3.184,1.473 l -6.848,-2.275 c -1.338,-0.445 -2.088,-1.826 -1.668,-3.082 l 2.488,-7.49 1.371,-4.127 7.436,-22.387 0.928,-2.794 c 3.368,2.528 7.49,3.898 11.698,3.888 z"
         style="fill:#f5a53d;fill-opacity:1"
         id="path184"
         inkscape:connector-curvature="0" /><path
         d="m 410.907,264.332 -0.97,2.922 -8.74,26.313 -2.511,7.559 c -0.418,1.26 -1.84,1.919 -3.184,1.473 l -6.848,-2.275 c -1.338,-0.445 -2.088,-1.826 -1.668,-3.082 l 2.488,-7.49 1.371,-4.127 7.436,-22.387 0.928,-2.794 c 3.368,2.528 7.49,3.898 11.698,3.888 z"
         style="opacity:0.1;fill:#f5a53d;fill-opacity:1;enable-background:new"
         id="path186"
         inkscape:connector-curvature="0" /></g><g
       style="display:inline"
       id="g194"><path
         d="m 434.724,192.627 -3.688,11.103 -8.533,25.691 c -3.371,-2.527 -7.492,-3.893 -11.699,-3.883 l 12.221,-36.794 c 0.418,-1.26 1.84,-1.92 3.184,-1.473 l 6.848,2.275 c 1.338,0.444 2.087,1.825 1.667,3.081 z"
         style="fill:#f5a53d;fill-opacity:1"
         id="path190"
         inkscape:connector-curvature="0" /><path
         d="m 434.724,192.627 -3.688,11.103 -8.533,25.691 c -3.371,-2.527 -7.492,-3.893 -11.699,-3.883 l 12.221,-36.794 c 0.418,-1.26 1.84,-1.92 3.184,-1.473 l 6.848,2.275 c 1.338,0.444 2.087,1.825 1.667,3.081 z"
         style="opacity:0.1;fill:#f5a53d;fill-opacity:1;enable-background:new"
         id="path192"
         inkscape:connector-curvature="0" /></g><path
       d="m 368.888,224.501 c -0.342,0.613 -0.67,1.231 -0.985,1.858 -1.542,3.069 -2.749,6.293 -3.595,9.61 l 26.127,8.678 c 0.39,-2.986 1.449,-5.87 3.098,-8.425 0.003,-0.002 0.002,-0.005 0.005,-0.007 0.51,-1.028 1.115,-2.005 1.805,-2.927 z m 26.731,-22.3 c -2.039,0.7 -4.054,1.546 -6.036,2.54 -1.557,0.781 -3.054,1.633 -4.492,2.554 l 12.011,23.959 c 1.439,-1.449 3.137,-2.692 5.063,-3.658 1.926,-0.966 3.935,-1.58 5.957,-1.867 l -11.898,-23.734 c -0.203,0.07 -0.402,0.137 -0.605,0.206 z m 24.256,-1.901 c -0.216,-0.039 -0.435,-0.076 -0.652,-0.11 l -8.42,25.348 c 4.208,-0.009 8.329,1.357 11.699,3.883 l 8.533,-25.691 c -3.555,-1.592 -7.306,-2.743 -11.16,-3.43 z m 30.602,19.579 c -0.291,-0.426 -0.591,-0.844 -0.895,-1.255 l -25.046,12.556 c 1.221,1.214 2.299,2.614 3.186,4.18 0.525,0.754 1,1.554 1.424,2.4 0.674,1.345 1.182,2.733 1.53,4.136 l 24.854,-12.46 c -0.523,-1.352 -1.115,-2.689 -1.778,-4.011 -0.977,-1.951 -2.075,-3.798 -3.275,-5.546 z m -25.29,41.302 c -1.532,1.524 -3.331,2.834 -5.375,3.859 -1.59,0.797 -3.237,1.374 -4.9,1.741 l 12.285,24.504 c 1.598,-0.601 3.177,-1.29 4.735,-2.071 1.982,-0.994 3.866,-2.101 5.646,-3.317 0.176,-0.121 0.349,-0.241 0.526,-0.362 l -12.45,-24.834 c -0.152,0.163 -0.308,0.323 -0.467,0.48 z m -26.852,2.1 c -0.02,-0.015 -0.038,-0.026 -0.054,-0.042 l -7.436,22.387 -1.371,4.127 c 3.718,1.776 7.662,3.059 11.722,3.815 l 8.74,-26.313 c -4.19,-0.111 -8.257,-1.5 -11.601,-3.974 z m 32.866,-18.082 c 0.043,0.526 0.063,1.055 0.057,1.581 -0.021,3.675 -1.051,7.293 -2.96,10.444 l 26.127,8.678 c 1.535,-3.384 2.673,-6.933 3.381,-10.565 0.081,-0.408 0.154,-0.817 0.223,-1.227 z m -40.912,3.149 -25.48,12.774 c 0.151,0.488 0.306,0.978 0.474,1.466 0.683,2.007 1.507,3.992 2.484,5.941 0.663,1.322 1.38,2.597 2.15,3.825 l 24.854,-12.46 c -0.916,-1.118 -1.724,-2.355 -2.398,-3.7 -1.007,-2.008 -1.643,-4.108 -1.929,-6.22 -0.077,-0.541 -0.128,-1.083 -0.155,-1.626 z"
       style="display:inline;opacity:0.05;fill:#23211f;fill-opacity:1;enable-background:new"
       id="path196"
       inkscape:connector-curvature="0" /><path
       d="m 441.872,211.845 c -5.822,-5.469 -12.817,-9.149 -20.221,-10.956 -4.008,-0.982 -8.136,-1.41 -12.26,-1.283 -7.618,0.243 -15.225,2.396 -22.049,6.547 -1.738,1.057 -3.425,2.242 -5.048,3.558 -1.623,1.316 -3.133,2.724 -4.526,4.207 -5.471,5.819 -9.149,12.817 -10.956,20.221 -0.982,4.008 -1.413,8.133 -1.278,12.26 0.238,7.618 2.391,15.225 6.54,22.046 1.057,1.738 2.242,3.425 3.56,5.051 1.318,1.626 2.724,3.133 4.207,4.526 5.817,5.468 12.815,9.146 20.219,10.953 4.01,0.985 8.136,1.415 12.26,1.283 7.617,-0.238 15.225,-2.391 22.048,-6.542 1.738,-1.057 3.428,-2.244 5.051,-3.56 1.623,-1.316 3.13,-2.722 4.524,-4.204 5.471,-5.819 9.149,-12.817 10.961,-20.221 0.977,-4.009 1.41,-8.136 1.278,-12.26 -0.238,-7.617 -2.394,-15.222 -6.542,-22.048 -1.057,-1.738 -2.242,-3.425 -3.56,-5.051 -1.319,-1.626 -2.725,-3.134 -4.208,-4.527 z m -12.082,28.87 c 0.913,4.112 0.46,8.43 -1.283,12.26 -0.368,0.816 -0.796,1.605 -1.28,2.364 -1.094,1.724 -2.482,3.301 -4.155,4.658 -1.674,1.357 -3.506,2.392 -5.419,3.106 -0.843,0.317 -1.709,0.572 -2.578,0.764 -4.107,0.914 -8.428,0.462 -12.26,-1.283 -0.811,-0.368 -1.602,-0.793 -2.362,-1.278 -1.724,-1.094 -3.303,-2.485 -4.66,-4.158 -1.357,-1.674 -2.392,-3.506 -3.106,-5.419 -0.317,-0.843 -0.57,-1.706 -0.762,-2.575 -0.916,-4.11 -0.465,-8.431 1.278,-12.26 0.368,-0.811 0.796,-1.605 1.28,-2.364 1.094,-1.724 2.485,-3.303 4.158,-4.66 1.674,-1.357 3.503,-2.389 5.416,-3.104 0.843,-0.317 1.703,-0.572 2.578,-0.764 4.107,-0.914 8.425,-0.465 12.26,1.278 0.811,0.368 1.6,0.795 2.364,1.28 1.724,1.094 3.303,2.485 4.66,4.158 1.357,1.674 2.392,3.506 3.106,5.419 0.318,0.849 0.573,1.709 0.765,2.578 z"
       style="display:inline;fill:#f5a53d;fill-opacity:1"
       id="path198"
       inkscape:connector-curvature="0" /><g
       style="display:inline;opacity:0.05"
       id="g214"
       transform="translate(-0.37,0.356)"><path
         d="m 395.793,257.149 c -6.418,-7.915 -5.578,-19.346 1.679,-26.251 -0.422,0.291 -0.839,0.601 -1.245,0.929 -8.32,6.747 -9.593,18.956 -2.845,27.277 6.747,8.321 18.956,9.598 27.276,2.851 0.406,-0.329 0.795,-0.673 1.167,-1.026 -8.256,5.674 -19.614,4.135 -26.032,-3.78 z"
         style="fill:#c68b3f;fill-opacity:1"
         id="path208"
         inkscape:connector-curvature="0" /><g
         id="g212"><path
           d="m 395.793,257.149 c -6.418,-7.915 -5.578,-19.346 1.679,-26.251 -0.422,0.291 -0.839,0.601 -1.245,0.929 -8.32,6.747 -9.593,18.956 -2.845,27.277 6.747,8.321 18.956,9.598 27.276,2.851 0.406,-0.329 0.795,-0.673 1.167,-1.026 -8.256,5.674 -19.614,4.135 -26.032,-3.78 z"
           style="fill:#231f20"
           id="path210"
           inkscape:connector-curvature="0" /></g></g><path
       d="m 390.491,219.819 c -0.542,0.439 -1.064,0.891 -1.565,1.358 13.79,-9.814 33.019,-7.331 43.828,5.999 10.81,13.33 9.267,32.657 -3.184,44.122 0.56,-0.393 1.11,-0.811 1.652,-1.25 13.869,-11.247 15.996,-31.611 4.749,-45.481 -11.249,-13.871 -31.611,-15.995 -45.48,-4.748 z"
       style="display:inline;opacity:0.05;fill:#23211f;fill-opacity:1;enable-background:new"
       id="path216"
       inkscape:connector-curvature="0" /></g><g
     inkscape:groupmode="layer"
     id="layer6"
     inkscape:label="LeftWheel"
     style="display:inline"
     sodipodi:insensitive="true"><g
       style="display:inline"
       id="g82"><path
         d="m 243.177,260.263 c -1.174,2.589 -1.884,5.272 -2.158,7.952 l -46.582,-21.132 c -1.593,-0.723 -2.258,-2.686 -1.489,-4.379 l 3.933,-8.671 c 0.768,-1.694 2.683,-2.486 4.276,-1.764 l 46.582,21.132 c -1.836,1.972 -3.387,4.273 -4.562,6.862 z"
         style="fill:#d55b19;fill-opacity:1"
         id="path78"
         inkscape:connector-curvature="0" /><path
         d="m 243.177,260.263 c -1.174,2.589 -1.884,5.272 -2.158,7.952 l -46.582,-21.132 c -1.593,-0.723 -2.258,-2.686 -1.489,-4.379 l 3.933,-8.671 c 0.768,-1.694 2.683,-2.486 4.276,-1.764 l 46.582,21.132 c -1.836,1.972 -3.387,4.273 -4.562,6.862 z"
         style="opacity:0.1;fill:#c66f3f;fill-opacity:1;enable-background:new"
         id="path80"
         inkscape:connector-curvature="0" /></g><g
       style="display:inline"
       id="g88"><path
         d="m 340.001,298.959 -3.933,8.671 c -0.768,1.694 -2.683,2.486 -4.276,1.764 l -46.578,-21.13 c 1.836,-1.971 3.388,-4.272 4.562,-6.861 0.183,-0.404 0.355,-0.807 0.515,-1.216 0.87,-2.209 1.411,-4.476 1.643,-6.736 l 46.578,21.13 c 1.593,0.721 2.258,2.684 1.489,4.378 z"
         style="fill:#d55b19;fill-opacity:1"
         id="path84"
         inkscape:connector-curvature="0" /><path
         d="m 340.001,298.959 -3.933,8.671 c -0.768,1.694 -2.683,2.486 -4.276,1.764 l -46.578,-21.13 c 1.836,-1.971 3.388,-4.272 4.562,-6.861 0.183,-0.404 0.355,-0.807 0.515,-1.216 0.87,-2.209 1.411,-4.476 1.643,-6.736 l 46.578,21.13 c 1.593,0.721 2.258,2.684 1.489,4.378 z"
         style="opacity:0.1;fill:#c66f3f;fill-opacity:1;enable-background:new"
         id="path86"
         inkscape:connector-curvature="0" /></g><g
       style="display:inline"
       id="g94"><path
         d="m 263.855,296.288 -21.13,46.578 c -0.723,1.593 -2.681,2.26 -4.379,1.49 l -8.666,-3.931 c -1.698,-0.77 -2.486,-2.684 -1.764,-4.276 l 21.13,-46.578 c 1.971,1.836 4.272,3.388 6.861,4.562 2.589,1.174 5.268,1.881 7.948,2.155 z"
         style="fill:#d55b19;fill-opacity:1"
         id="path90"
         inkscape:connector-curvature="0" /><path
         d="m 263.855,296.288 -21.13,46.578 c -0.723,1.593 -2.681,2.26 -4.379,1.49 l -8.666,-3.931 c -1.698,-0.77 -2.486,-2.684 -1.764,-4.276 l 21.13,-46.578 c 1.971,1.836 4.272,3.388 6.861,4.562 2.589,1.174 5.268,1.881 7.948,2.155 z"
         style="opacity:0.1;fill:#c66f3f;fill-opacity:1;enable-background:new"
         id="path92"
         inkscape:connector-curvature="0" /></g><g
       style="display:inline"
       id="g100"
       inkscape:label="g100"><path
         d="m 305.033,205.515 -21.13,46.578 c -1.971,-1.836 -4.268,-3.386 -6.857,-4.56 -2.589,-1.174 -5.272,-1.884 -7.952,-2.158 l 21.13,-46.578 c 0.723,-1.593 2.681,-2.26 4.379,-1.489 l 8.666,3.931 c 1.699,0.771 2.487,2.684 1.764,4.276 z"
         style="fill:#d55b19;fill-opacity:1"
         id="path96"
         inkscape:connector-curvature="0" /><path
         d="m 305.033,205.515 -21.13,46.578 c -1.971,-1.836 -4.268,-3.386 -6.857,-4.56 -2.589,-1.174 -5.272,-1.884 -7.952,-2.158 l 21.13,-46.578 c 0.723,-1.593 2.681,-2.26 4.379,-1.489 l 8.666,3.931 c 1.699,0.771 2.487,2.684 1.764,4.276 z"
         style="opacity:0.1;fill:#c66f3f;fill-opacity:1;enable-background:new"
         id="path98"
         inkscape:connector-curvature="0" /></g><g
       style="display:inline"
       id="g106"><path
         d="m 265.549,245.259 c -1.518,0.057 -3.022,0.248 -4.5,0.578 -0.004,-0.002 -0.006,0.003 -0.011,0.001 -3.901,0.844 -7.583,2.602 -10.71,5.146 L 232.332,203.1 c -0.618,-1.635 0.299,-3.494 2.04,-4.148 l 8.911,-3.349 c 1.748,-0.657 3.656,0.14 4.272,1.779 z"
         style="fill:#d55b19;fill-opacity:1"
         id="path102"
         inkscape:connector-curvature="0" /><path
         d="m 265.549,245.259 c -1.518,0.057 -3.022,0.248 -4.5,0.578 -0.004,-0.002 -0.006,0.003 -0.011,0.001 -3.901,0.844 -7.583,2.602 -10.71,5.146 L 232.332,203.1 c -0.618,-1.635 0.299,-3.494 2.04,-4.148 l 8.911,-3.349 c 1.748,-0.657 3.656,0.14 4.272,1.779 z"
         style="opacity:0.1;fill:#c66f3f;fill-opacity:1;enable-background:new"
         id="path104"
         inkscape:connector-curvature="0" /></g><g
       style="display:inline"
       id="g112"><path
         d="m 298.577,342.711 -8.911,3.349 c -1.748,0.657 -3.656,-0.14 -4.272,-1.779 L 267.4,296.404 c 5.547,-0.203 10.909,-2.215 15.223,-5.718 l 17.995,47.877 c 0.618,1.634 -0.299,3.493 -2.041,4.148 z"
         style="fill:#d55b19;fill-opacity:1"
         id="path108"
         inkscape:connector-curvature="0" /><path
         d="m 298.577,342.711 -8.911,3.349 c -1.748,0.657 -3.656,-0.14 -4.272,-1.779 L 267.4,296.404 c 5.547,-0.203 10.909,-2.215 15.223,-5.718 l 17.995,47.877 c 0.618,1.634 -0.299,3.493 -2.041,4.148 z"
         style="opacity:0.1;fill:#c66f3f;fill-opacity:1;enable-background:new"
         id="path110"
         inkscape:connector-curvature="0" /></g><g
       style="display:inline"
       id="g118"><path
         d="m 246.623,286.979 -3.802,1.429 -34.239,12.869 -9.836,3.697 c -1.639,0.616 -3.496,-0.295 -4.153,-2.043 l -3.349,-8.911 c -0.654,-1.741 0.14,-3.656 1.777,-4.268 l 9.746,-3.663 5.371,-2.019 29.13,-10.949 3.636,-1.366 c 0.202,5.552 2.218,10.916 5.719,15.224 z"
         style="fill:#d55b19;fill-opacity:1"
         id="path114"
         inkscape:connector-curvature="0" /><path
         d="m 246.623,286.979 -3.802,1.429 -34.239,12.869 -9.836,3.697 c -1.639,0.616 -3.496,-0.295 -4.153,-2.043 l -3.349,-8.911 c -0.654,-1.741 0.14,-3.656 1.777,-4.268 l 9.746,-3.663 5.371,-2.019 29.13,-10.949 3.636,-1.366 c 0.202,5.552 2.218,10.916 5.719,15.224 z"
         style="opacity:0.1;fill:#c66f3f;fill-opacity:1;enable-background:new"
         id="path116"
         inkscape:connector-curvature="0" /></g><g
       style="display:inline"
       id="g124"><path
         d="m 339.927,251.91 -14.447,5.43 -33.43,12.565 c -0.205,-5.553 -2.224,-10.913 -5.725,-15.221 l 47.877,-17.994 c 1.639,-0.616 3.496,0.295 4.153,2.042 l 3.349,8.911 c 0.655,1.741 -0.14,3.656 -1.777,4.267 z"
         style="fill:#d55b19;fill-opacity:1"
         id="path120"
         inkscape:connector-curvature="0" /><path
         d="m 339.927,251.91 -14.447,5.43 -33.43,12.565 c -0.205,-5.553 -2.224,-10.913 -5.725,-15.221 l 47.877,-17.994 c 1.639,-0.616 3.496,0.295 4.153,2.042 l 3.349,8.911 c 0.655,1.741 -0.14,3.656 -1.777,4.267 z"
         style="opacity:0.1;fill:#c66f3f;fill-opacity:1;enable-background:new"
         id="path122"
         inkscape:connector-curvature="0" /></g><path
       d="m 252.611,210.834 c -0.913,0.157 -1.818,0.334 -2.723,0.532 -4.427,0.965 -8.735,2.402 -12.839,4.287 l 12.778,33.997 c 3.387,-2.077 7.223,-3.384 11.211,-3.813 0.004,0.002 0.006,-0.003 0.011,-10e-4 1.478,-0.33 2.982,-0.52 4.5,-0.578 z m 45.051,8.914 c -2.41,-1.511 -4.95,-2.875 -7.613,-4.083 -2.093,-0.949 -4.21,-1.777 -6.347,-2.488 l -14.607,32.198 c 2.68,0.274 5.363,0.983 7.952,2.158 2.589,1.174 4.886,2.724 6.857,4.56 l 14.469,-31.896 c -0.239,-0.15 -0.473,-0.299 -0.711,-0.449 z m 22.075,23.299 c -0.139,-0.254 -0.282,-0.509 -0.428,-0.76 l -32.983,12.397 c 3.501,4.308 5.519,9.668 5.725,15.221 l 33.43,-12.565 c -1.319,-4.968 -3.251,-9.77 -5.744,-14.293 z m 5.312,47.632 c 0.195,-0.652 0.375,-1.306 0.545,-1.959 l -33.66,-15.269 c -0.232,2.26 -0.773,4.527 -1.643,6.736 -0.338,1.164 -0.764,2.315 -1.28,3.451 -0.82,1.808 -1.822,3.48 -2.972,5.001 l 33.401,15.152 c 0.953,-1.658 1.833,-3.375 2.639,-5.152 1.188,-2.621 2.172,-5.28 2.97,-7.96 z m -63.345,8.332 c -2.834,-0.307 -5.67,-1.065 -8.417,-2.311 -2.137,-0.969 -4.095,-2.18 -5.852,-3.581 l -14.939,32.931 c 1.943,1.141 3.96,2.188 6.053,3.137 2.663,1.208 5.363,2.221 8.087,3.039 0.27,0.08 0.536,0.159 0.807,0.239 l 15.14,-33.374 c -0.292,-0.021 -0.586,-0.048 -0.879,-0.08 z m -24.433,-25.798 c -10e-4,-0.032 -0.004,-0.06 -10e-4,-0.091 l -29.13,10.949 -5.371,2.019 c 1.263,5.287 3.22,10.397 5.814,15.187 l 34.239,-12.869 c -3.364,-4.389 -5.314,-9.712 -5.551,-15.195 z m 45.815,18.704 c -0.504,0.48 -1.03,0.94 -1.574,1.371 -3.786,3.028 -8.351,4.973 -13.167,5.63 l 12.778,33.997 c 4.745,-1.234 9.329,-3.011 13.641,-5.298 0.486,-0.256 0.966,-0.52 1.443,-0.79 z M 245.91,252.571 211.667,237.037 c -0.376,0.56 -0.749,1.126 -1.111,1.702 -1.491,2.366 -2.844,4.858 -4.032,7.478 -0.806,1.777 -1.519,3.57 -2.139,5.379 l 33.401,15.152 c 0.387,-1.867 0.985,-3.723 1.805,-5.53 1.224,-2.699 2.85,-5.093 4.778,-7.139 0.493,-0.528 1.007,-1.031 1.541,-1.508 z"
       style="display:inline;opacity:0.05;fill:#23201f;fill-opacity:1;enable-background:new"
       id="path126"
       inkscape:connector-curvature="0" /><path
       d="m 326.148,275.187 c 0.778,-10.509 -1.252,-20.737 -5.542,-29.83 -2.318,-4.925 -5.304,-9.515 -8.857,-13.638 -6.57,-7.611 -15.09,-13.627 -25.01,-17.181 -2.527,-0.906 -5.141,-1.653 -7.837,-2.226 -2.696,-0.572 -5.393,-0.953 -8.07,-1.152 -10.508,-0.783 -20.737,1.252 -29.83,5.542 -4.925,2.318 -9.514,5.299 -13.635,8.863 -7.615,6.565 -13.631,15.085 -17.184,24.999 -0.906,2.527 -1.653,5.141 -2.227,7.842 -0.573,2.701 -0.953,5.393 -1.152,8.07 -0.782,10.503 1.253,20.732 5.543,29.825 2.317,4.93 5.299,9.518 8.857,13.638 6.565,7.615 15.085,13.631 25.004,17.185 2.527,0.906 5.146,1.654 7.842,2.227 2.696,0.573 5.389,0.952 8.065,1.151 10.508,0.783 20.737,-1.252 29.833,-5.536 4.922,-2.324 9.515,-5.304 13.635,-8.863 7.615,-6.565 13.626,-15.086 17.185,-25.004 0.906,-2.527 1.653,-5.141 2.227,-7.842 0.575,-2.7 0.954,-5.393 1.153,-8.07 z m -39.634,11.563 c -3.46,4.349 -8.265,7.466 -13.638,8.857 -1.142,0.299 -2.306,0.515 -3.487,0.649 -2.676,0.308 -5.445,0.194 -8.225,-0.397 -2.781,-0.59 -5.362,-1.611 -7.682,-2.981 -1.025,-0.602 -2.004,-1.278 -2.923,-2.01 -4.345,-3.454 -7.467,-8.26 -8.857,-13.638 -0.295,-1.137 -0.516,-2.302 -0.65,-3.482 -0.309,-2.676 -0.193,-5.449 0.398,-8.23 0.59,-2.781 1.611,-5.362 2.981,-7.682 0.602,-1.025 1.277,-2 2.009,-2.918 3.455,-4.35 8.261,-7.472 13.635,-8.863 1.137,-0.296 2.306,-0.515 3.487,-0.649 2.676,-0.308 5.449,-0.192 8.23,0.398 2.781,0.59 5.357,1.61 7.677,2.98 1.025,0.602 2.001,1.272 2.923,2.01 4.345,3.454 7.468,8.255 8.863,13.635 0.296,1.137 0.511,2.301 0.649,3.487 0.309,2.676 0.193,5.449 -0.398,8.23 -0.59,2.781 -1.611,5.362 -2.981,7.682 -0.609,1.028 -1.279,2.004 -2.011,2.922 z"
       style="display:inline;fill:#d55b19;fill-opacity:1"
       id="path128"
       inkscape:connector-curvature="0" /><g
       style="display:inline"
       id="g136"><path
         d="m 275.337,229.106 c -23.048,-4.894 -45.697,9.818 -50.591,32.865 -4.893,23.043 9.823,45.693 32.871,50.587 23.043,4.893 45.693,-9.823 50.586,-32.866 4.894,-23.048 -9.823,-45.693 -32.866,-50.586 z m -14.174,66.753 c -13.824,-2.935 -22.648,-16.517 -19.713,-30.341 2.935,-13.824 16.517,-22.648 30.341,-19.713 13.819,2.934 22.648,16.517 19.713,30.341 -2.935,13.824 -16.522,22.647 -30.341,19.713 z"
         style="fill:#d55b19;fill-opacity:1"
         id="path130"
         inkscape:connector-curvature="0" /></g><g
       style="display:inline;opacity:0.05"
       id="g144"><path
         d="m 241.45,265.518 c 2.792,-13.15 15.213,-21.773 28.316,-20.059 -0.649,-0.192 -1.312,-0.362 -1.986,-0.505 -13.824,-2.935 -27.401,5.89 -30.336,19.714 -2.935,13.824 5.885,27.405 19.708,30.34 0.674,0.143 1.349,0.257 2.02,0.345 -12.669,-3.759 -20.514,-16.685 -17.722,-29.835 z"
         style="fill:#c66f3f;fill-opacity:1"
         id="path138"
         inkscape:connector-curvature="0" /><g
         id="g142"><path
           d="m 241.45,265.518 c 2.792,-13.15 15.213,-21.773 28.316,-20.059 -0.649,-0.192 -1.312,-0.362 -1.986,-0.505 -13.824,-2.935 -27.401,5.89 -30.336,19.714 -2.935,13.824 5.885,27.405 19.708,30.34 0.674,0.143 1.349,0.257 2.02,0.345 -12.669,-3.759 -20.514,-16.685 -17.722,-29.835 z"
           style="fill:#231f20"
           id="path140"
           inkscape:connector-curvature="0" /></g></g><path
       d="m 275.337,229.106 c -0.9,-0.191 -1.797,-0.352 -2.691,-0.478 21.507,6 34.915,27.782 30.213,49.929 -4.702,22.147 -25.805,36.601 -47.894,33.344 0.868,0.248 1.753,0.466 2.653,0.657 23.043,4.893 45.693,-9.823 50.586,-32.866 4.893,-23.048 -9.824,-45.693 -32.867,-50.586 z"
       style="display:inline;opacity:0.05;fill:#23201f;fill-opacity:1;enable-background:new"
       id="path146"
       inkscape:connector-curvature="0" /></g></svg>